<svg xmlns:x="http://ns.adobe.com/Extensibility/1.0/" xmlns:i="http://ns.adobe.com/AdobeIllustrator/10.0/" xmlns:graph="http://ns.adobe.com/Graphs/1.0/" xmlns:a="http://ns.adobe.com/AdobeSVGViewerExtensions/3.0/"  xmlns="http://www.w3.org/2000/svg" xmlns:xlink="http://www.w3.org/1999/xlink" width="744" height="530"><defs></defs><defs><symbol id="com.gliffy.ui.formscomponents.Window_formscomponents/window_back_" viewBox="0 0 200 200" preserveAspectRatio="none"><path d="M200,197.749c0,1.246-1.003,2.252-2.241,2.252H2.249C1.006,200,0,198.995,0,197.749V2.256	C0,1.009,1.006,0,2.249,0h195.51C198.997,0,200,1.009,200,2.256V197.749z"/></symbol><symbol id="com.gliffy.ui.formscomponents.Window_formscomponents/window_top_left_" viewBox="0 0 6 31" preserveAspectRatio="none"><path style="fill:none;stroke:#8C8C8C;stroke-width:2;" d="M5.5,28.996l-4,0.008V2.996c0-1.104,0.896-2,2-2h2"/></symbol><symbol id="com.gliffy.ui.formscomponents.Window_formscomponents/window_top_mid_" viewBox="0 0 1 30" preserveAspectRatio="none"><line style="fill:none;stroke:#8C8C8C;stroke-width:2;" x1="0" y1="1" x2="1" y2="1"/><line style="fill:none;stroke:#8C8C8C;stroke-width:2;" x1="0" y1="29" x2="1" y2="29"/></symbol><symbol id="com.gliffy.ui.formscomponents.Window_formscomponents/window_top_right_" viewBox="0 0 76 30" preserveAspectRatio="none"><path style="fill:none;stroke:#8C8C8C;stroke-width:2;" d="M0,1h73c1.104,0,2,0.896,2,2l-0.016,25.984L0,29"/><path style="fill:none;stroke:#8C8C8C;stroke-width:2;" d="M71,23c0,1.104-0.896,2-2,2H53c-1.104,0-2-0.896-2-2V7	c0-1.104,0.896-2,2-2h16c1.104,0,2,0.896,2,2V23z"/><path style="fill:none;stroke:#8C8C8C;stroke-width:2;" d="M47,23c0,1.104-0.896,2-2,2H29c-1.104,0-2-0.896-2-2V7	c0-1.104,0.896-2,2-2h16c1.104,0,2,0.896,2,2V23z"/><path style="fill:none;stroke:#8C8C8C;stroke-width:2;" d="M23,23c0,1.104-0.896,2-2,2H5c-1.104,0-2-0.896-2-2V7	c0-1.104,0.896-2,2-2h16c1.104,0,2,0.896,2,2V23z"/><line style="fill:none;stroke:#8C8C8C;stroke-width:2;" x1="51.667" y1="24.5" x2="70" y2="5.917"/><line style="fill:none;stroke:#8C8C8C;stroke-width:2;" x1="51.417" y1="5.5" x2="70.25" y2="24.417"/><line style="fill:none;stroke:#8C8C8C;stroke-width:2;" x1="6.167" y1="20.75" x2="18.5" y2="20.75"/><rect x="32.167" y="9.917" style="fill:none;stroke:#8C8C8C;stroke-width:2;" width="10" height="10"/></symbol><symbol id="com.gliffy.ui.formscomponents.Window_formscomponents/window_mid_left_" viewBox="0 0 2 1" preserveAspectRatio="none"><line style="fill:none;stroke:#808183;stroke-width:2;" stroke-linecap="square" x1="1" y1="1" x2="1" y2="0"/></symbol><symbol id="com.gliffy.ui.formscomponents.Window_formscomponents/window_mid_right_" viewBox="0 0 2 1" preserveAspectRatio="none"><line style="fill:none;stroke:#808183;stroke-width:2;" stroke-linecap="square" x1="1" y1="1" x2="1" y2="0"/></symbol><symbol id="com.gliffy.ui.formscomponents.Window_formscomponents/window_bottom_left_" viewBox="0 0 4 4" preserveAspectRatio="none"><path style="fill:none;stroke:#808183;stroke-width:2;" stroke-linecap="square" d="M4,3C2.343,3,1,1.657,1,0"/></symbol><symbol id="com.gliffy.ui.formscomponents.Window_formscomponents/window_bottom_mid_" viewBox="0 0 1 2" preserveAspectRatio="none"><line style="fill:none;stroke:#808183;stroke-width:2;" stroke-linecap="square" x1="0" y1="1" x2="1" y2="1"/></symbol><symbol id="com.gliffy.ui.formscomponents.Window_formscomponents/window_bottom_right_" viewBox="0 0 4 4" preserveAspectRatio="none"><path style="fill:none;stroke:#808183;stroke-width:2;" stroke-linecap="square" d="M0,3c1.657,0,3-1.343,3-3"/></symbol></defs><g transform='translate(286.5,95.5) rotate(0 72.5 62.5)'><use xlink:href='#com.gliffy.ui.formscomponents.Window_formscomponents/window_back_' x='0.0' y='0.0' width='145.0' height='125.0' fill='#FFFFFF'/><use xlink:href='#com.gliffy.ui.formscomponents.Window_formscomponents/window_top_left_' x='0.0' y='0.0' width='6.0' height='30.0' fill='#FFFFFF'/><use xlink:href='#com.gliffy.ui.formscomponents.Window_formscomponents/window_top_mid_' x='3.0' y='0.0' width='68.0' height='30.0' fill='#FFFFFF'/><use xlink:href='#com.gliffy.ui.formscomponents.Window_formscomponents/window_top_right_' x='69.0' y='0.0' width='76.0' height='30.0' fill='#FFFFFF'/><use xlink:href='#com.gliffy.ui.formscomponents.Window_formscomponents/window_mid_left_' x='0.0' y='29.0' width='2.0' height='92.0' fill='#FFFFFF'/><use xlink:href='#com.gliffy.ui.formscomponents.Window_formscomponents/window_mid_right_' x='143.0' y='30.0' width='2.0' height='91.0' fill='#FFFFFF'/><use xlink:href='#com.gliffy.ui.formscomponents.Window_formscomponents/window_bottom_left_' x='0.0' y='121.0' width='4.0' height='4.0' fill='#FFFFFF'/><use xlink:href='#com.gliffy.ui.formscomponents.Window_formscomponents/window_bottom_mid_' x='4.0' y='123.0' width='137.0' height='2.0' fill='#FFFFFF'/><use xlink:href='#com.gliffy.ui.formscomponents.Window_formscomponents/window_bottom_right_' x='141.0' y='121.0' width='4.0' height='4.0' fill='#FFFFFF'/><g  transform='translate(5.0,22.0)'><text x='2' style='text-anchor: start' y='-2.0'><tspan xml:space='preserve' font-size='14' font-family='Arial' fill='#595959' font-weight='bold' >Victim</tspan></text></g></g><defs>    <path d="M11.396,79.491c1.048,1.759,1.066,3.689,0.042,4.313c-1.023,0.628-2.704-0.294-3.753-2.053      c-1.044-1.758-1.065-3.689-0.042-4.312C8.669,76.816,10.347,77.733,11.396,79.491z" id="SVGIDserver_3_"/>    <clipPath id="SVGIDserver_4_">        <use overflow="visible" xlink:actuate="onLoad" xlink:href="#SVGIDserver_3_" xlink:show="embed" xlink:type="simple" xmlns:xlink="http://www.w3.org/1999/xlink"/>    </clipPath>    <linearGradient gradientUnits="userSpaceOnUse" id="SVGIDserver_1_" x1="10.5381" x2="50.7503" xlink:actuate="onLoad" xlink:show="other" xlink:type="simple" xmlns:xlink="http://www.w3.org/1999/xlink" y1="31.2178" y2="7.4423">		<stop offset="0" style="stop-color:#464646"/>		<stop offset="1" style="stop-color:#CCCCCC"/>		<a:midPointStop offset="0" style="stop-color:#464646"/>		<a:midPointStop offset="0.5" style="stop-color:#464646"/>		<a:midPointStop offset="1" style="stop-color:#CCCCCC"/>	</linearGradient><linearGradient gradientUnits="userSpaceOnUse" id="SVGIDserver_2_" x1="22.9014" x2="56.9328" xlink:actuate="onLoad" xlink:show="other" xlink:type="simple" xmlns:xlink="http://www.w3.org/1999/xlink" y1="69.9111" y2="49.79">		<stop offset="0" style="stop-color:#353535"/>		<stop offset="1" style="stop-color:#949494"/>		<a:midPointStop offset="0" style="stop-color:#353535"/>		<a:midPointStop offset="0.5" style="stop-color:#353535"/>		<a:midPointStop offset="1" style="stop-color:#949494"/>	</linearGradient><linearGradient gradientUnits="userSpaceOnUse" id="SVGIDserver_5_" x1="0" x2="26.3242" xlink:actuate="onLoad" xlink:show="other" xlink:type="simple" xmlns:xlink="http://www.w3.org/1999/xlink" y1="61.4395" y2="61.4395">		<stop offset="0" style="stop-color:#565656"/>		<stop offset="0.1023" style="stop-color:#696969"/>		<stop offset="0.2979" style="stop-color:#868686"/>		<stop offset="0.4908" style="stop-color:#9C9C9C"/>		<stop offset="0.6779" style="stop-color:#A9A9A9"/>		<stop offset="0.8528" style="stop-color:#ADADAD"/>		<stop offset="1" style="stop-color:#535353"/>		<a:midPointStop offset="0" style="stop-color:#565656"/>		<a:midPointStop offset="0.3067" style="stop-color:#565656"/>		<a:midPointStop offset="0.8528" style="stop-color:#ADADAD"/>		<a:midPointStop offset="0.5" style="stop-color:#ADADAD"/>		<a:midPointStop offset="1" style="stop-color:#535353"/>	</linearGradient><symbol id="com.gliffy.newnetwork.home.Server" viewBox="0 0 64 100" preserveAspectRatio="none"><g id="Layer_0">	<rect fill="none" height="99.918" width="64"/>	<path d="M26.324,69.89V36.073C20.743,39.341,0.18,28.057,0.001,22.947c0-0.01,0-0.038-0.001-0.066v63.524h0.023   c0.46,5.161,20.76,16.25,26.301,13.012V69.89z"/></g><g id="Layer_1">	<rect fill="none" height="99.918" width="64"/>		<path d="M64,14.176c0,0-33.512,19.476-37.676,21.897C20.899,39.247,0,29.642,0,22.881   C4.341,20.346,39.186-0.001,39.186-0.001L64,14.176z" fill="url(#SVGIDserver_1_)"/>		<polygon fill="url(#SVGIDserver_2_)" points="26.227,99.481 64,77.425 64,14.176 26.324,36.073  "/>	<g>		<g>			<rect clip-path="url(#SVGIDserver_4_)" fill="#C4C6C8" height="7.613" width="5.844" x="6.619" y="76.817"/>			<path clip-path="url(#SVGIDserver_4_)" d="M11.81,79.238c0.908,1.525,0.63,3.379-0.623,4.145     c-1.252,0.767-3.003,0.146-3.912-1.376c-0.908-1.525-0.63-3.379,0.622-4.145C9.15,77.104,10.901,77.717,11.81,79.238z" fill="#C4C6C8"/>			<path clip-path="url(#SVGIDserver_4_)" d="M11.771,79.266c0.893,1.498,0.618,3.32-0.615,4.066     c-1.229,0.755-2.954,0.148-3.842-1.345c-0.897-1.506-0.619-3.32,0.611-4.074C9.158,77.158,10.878,77.764,11.771,79.266z" fill="#C5C7C9"/>			<path clip-path="url(#SVGIDserver_4_)" d="M11.732,79.285c0.877,1.475,0.611,3.262-0.6,4.004     C9.924,84.024,8.23,83.43,7.349,81.96c-0.877-1.475-0.603-3.262,0.607-4.004C9.166,77.221,10.855,77.814,11.732,79.285z" fill="#C6C8CA"/>			<path clip-path="url(#SVGIDserver_4_)" d="M11.693,79.309c0.862,1.447,0.6,3.206-0.591,3.93     c-1.19,0.731-2.853,0.145-3.715-1.302c-0.862-1.447-0.595-3.207,0.591-3.93C9.169,77.275,10.836,77.862,11.693,79.309z" fill="#C7C9CB"/>			<path clip-path="url(#SVGIDserver_4_)" d="M11.659,79.332c0.843,1.424,0.584,3.151-0.587,3.863     c-1.167,0.712-2.798,0.133-3.645-1.282C6.58,80.489,6.842,78.769,8.01,78.05C9.177,77.338,10.809,77.917,11.659,79.332z" fill="#C8CACC"/>			<path clip-path="url(#SVGIDserver_4_)" d="M11.62,79.359c0.827,1.393,0.572,3.089-0.572,3.785     c-1.148,0.708-2.753,0.141-3.58-1.251c-0.831-1.4-0.58-3.097,0.569-3.793C9.181,77.4,10.79,77.96,11.62,79.359z" fill="#C9CBCD"/>			<path clip-path="url(#SVGIDserver_4_)" d="M11.578,79.383c0.816,1.369,0.568,3.034-0.56,3.719     c-1.125,0.688-2.699,0.133-3.511-1.239c-0.819-1.369-0.568-3.034,0.557-3.719C9.189,77.455,10.762,78.011,11.578,79.383z" fill="#CACCCE"/>			<path clip-path="url(#SVGIDserver_4_)" d="M11.539,79.402c0.804,1.346,0.557,2.983-0.549,3.648     c-1.102,0.677-2.648,0.137-3.448-1.208c-0.8-1.346-0.553-2.976,0.553-3.648C9.196,77.518,10.743,78.058,11.539,79.402z" fill="#CBCDCF"/>			<path clip-path="url(#SVGIDserver_4_)" d="M11.5,79.426c0.789,1.322,0.549,2.921-0.537,3.582     c-1.083,0.665-2.598,0.125-3.382-1.188c-0.785-1.322-0.542-2.921,0.537-3.582C9.205,77.572,10.716,78.112,11.5,79.426z" fill="#CCCED0"/>			<path clip-path="url(#SVGIDserver_4_)" d="M11.466,79.453c0.765,1.291,0.533,2.862-0.53,3.512     C9.873,83.61,8.388,83.09,7.62,81.8c-0.77-1.299-0.533-2.87,0.529-3.512C9.208,77.635,10.696,78.155,11.466,79.453z" fill="#CDCFD1"/>			<path clip-path="url(#SVGIDserver_4_)" d="M11.427,79.477c0.75,1.264,0.521,2.808-0.522,3.438     c-1.04,0.642-2.494,0.121-3.247-1.146c-0.754-1.264-0.522-2.8,0.514-3.438C9.216,77.697,10.669,78.21,11.427,79.477z" fill="#CED0D1"/>			<path clip-path="url(#SVGIDserver_4_)" d="M11.388,79.496c0.734,1.244,0.511,2.749-0.51,3.375     c-1.021,0.617-2.443,0.121-3.186-1.122C6.955,80.505,7.187,79,8.203,78.382C9.224,77.756,10.65,78.253,11.388,79.496z" fill="#CFD1D2"/>			<path clip-path="url(#SVGIDserver_4_)" d="M11.35,79.52c0.723,1.217,0.502,2.694-0.499,3.301     c-0.997,0.605-2.393,0.117-3.116-1.095c-0.727-1.217-0.503-2.694,0.499-3.301C9.227,77.818,10.623,78.308,11.35,79.52z" fill="#D0D2D3"/>			<path clip-path="url(#SVGIDserver_4_)" d="M11.308,79.547c0.711,1.189,0.495,2.636-0.483,3.23     c-0.979,0.594-2.343,0.113-3.05-1.071c-0.711-1.197-0.491-2.636,0.483-3.23C9.235,77.874,10.604,78.354,11.308,79.547z" fill="#D1D3D4"/>			<path clip-path="url(#SVGIDserver_4_)" d="M11.273,79.57c0.691,1.162,0.475,2.573-0.476,3.156     c-0.956,0.582-2.292,0.113-2.985-1.052c-0.691-1.162-0.479-2.573,0.476-3.156C9.243,77.937,10.576,78.405,11.273,79.57z" fill="#D2D4D5"/>			<path clip-path="url(#SVGIDserver_4_)" d="M11.233,79.59c0.677,1.143,0.472,2.522-0.467,3.094     c-0.932,0.562-2.238,0.109-2.915-1.028c-0.676-1.143-0.472-2.522,0.464-3.086C9.25,77.999,10.557,78.452,11.233,79.59z" fill="#D3D5D6"/>			<path clip-path="url(#SVGIDserver_4_)" d="M11.195,79.613c0.661,1.115,0.457,2.46-0.452,3.02     c-0.912,0.559-2.191,0.109-2.857-1.001c-0.657-1.107-0.456-2.46,0.457-3.02C9.258,78.054,10.53,78.503,11.195,79.613z" fill="#D4D6D7"/>			<path clip-path="url(#SVGIDserver_4_)" d="M11.156,79.633c0.65,1.092,0.444,2.409-0.444,2.957     c-0.89,0.539-2.138,0.105-2.787-0.978c-0.646-1.084-0.445-2.409,0.444-2.957C9.262,78.116,10.511,78.55,11.156,79.633z" fill="#D5D7D8"/>			<path clip-path="url(#SVGIDserver_4_)" d="M11.118,79.664c0.63,1.061,0.437,2.347-0.437,2.874     c-0.87,0.536-2.084,0.103-2.718-0.958c-0.63-1.052-0.437-2.346,0.437-2.874C9.27,78.179,10.484,78.604,11.118,79.664z" fill="#D6D8D9"/>			<path clip-path="url(#SVGIDserver_4_)" d="M11.083,79.684c0.61,1.041,0.421,2.288-0.425,2.812     c-0.851,0.517-2.037,0.103-2.652-0.935c-0.619-1.032-0.429-2.287,0.421-2.812C9.274,78.233,10.465,78.647,11.083,79.684z" fill="#D7D9DA"/>			<path clip-path="url(#SVGIDserver_4_)" d="M11.041,79.707c0.599,1.014,0.414,2.233-0.414,2.737     c-0.827,0.505-1.983,0.098-2.583-0.907c-0.603-1.005-0.417-2.232,0.41-2.736C9.281,78.296,10.438,78.702,11.041,79.707z" fill="#D8DADB"/>			<path clip-path="url(#SVGIDserver_4_)" d="M11.002,79.731c0.583,0.985,0.406,2.178-0.398,2.67     c-0.808,0.493-1.937,0.098-2.524-0.888c-0.584-0.978-0.402-2.178,0.406-2.67C9.293,78.351,10.418,78.745,11.002,79.731z" fill="#D9DBDC"/>			<path clip-path="url(#SVGIDserver_4_)" d="M10.963,79.759c0.572,0.958,0.394,2.111-0.391,2.592     c-0.785,0.481-1.886,0.094-2.455-0.864c-0.564-0.95-0.395-2.111,0.39-2.592C9.297,78.413,10.392,78.801,10.963,79.759z" fill="#DADCDD"/>			<path clip-path="url(#SVGIDserver_4_)" d="M10.925,79.778c0.556,0.927,0.383,2.064-0.379,2.529     c-0.765,0.47-1.832,0.09-2.389-0.841c-0.553-0.927-0.383-2.064,0.383-2.529C9.305,78.476,10.372,78.848,10.925,79.778z" fill="#DBDDDE"/>			<path clip-path="url(#SVGIDserver_4_)" d="M10.89,79.802c0.538,0.899,0.367,2.01-0.371,2.455     c-0.743,0.458-1.782,0.09-2.324-0.813c-0.537-0.899-0.375-2.01,0.367-2.455C9.309,78.53,10.353,78.898,10.89,79.802z" fill="#DCDEDF"/>			<path clip-path="url(#SVGIDserver_4_)" d="M10.847,79.825c0.526,0.876,0.363,1.947-0.359,2.389     C9.765,82.652,8.756,82.3,8.234,81.42c-0.521-0.876-0.363-1.947,0.36-2.389C9.316,78.593,10.325,78.945,10.847,79.825z" fill="#DDDFE0"/>			<path clip-path="url(#SVGIDserver_4_)" d="M10.809,79.853c0.51,0.849,0.352,1.889-0.348,2.311     c-0.7,0.431-1.682,0.086-2.188-0.763c-0.506-0.856-0.353-1.896,0.352-2.318C9.32,78.651,10.298,78.996,10.809,79.853z" fill="#DEE0E1"/>			<path clip-path="url(#SVGIDserver_4_)" d="M10.77,79.872c0.495,0.825,0.34,1.838-0.336,2.248     c-0.681,0.41-1.631,0.082-2.123-0.747c-0.491-0.825-0.34-1.838,0.337-2.248C9.328,78.714,10.279,79.043,10.77,79.872z" fill="#DFE1E2"/>			<path clip-path="url(#SVGIDserver_4_)" d="M10.731,79.896c0.479,0.798,0.333,1.775-0.324,2.174     c-0.661,0.406-1.577,0.078-2.057-0.72c-0.479-0.798-0.332-1.775,0.329-2.174C9.332,78.777,10.259,79.098,10.731,79.896z" fill="#E0E2E3"/>			<path clip-path="url(#SVGIDserver_4_)" d="M10.696,79.919c0.46,0.774,0.317,1.721-0.32,2.107     c-0.634,0.387-1.527,0.078-1.988-0.7c-0.463-0.774-0.32-1.721,0.313-2.107C9.343,78.832,10.232,79.141,10.696,79.919z" fill="#E2E3E4"/>			<path clip-path="url(#SVGIDserver_4_)" d="M10.658,79.946c0.444,0.743,0.306,1.662-0.305,2.029     c-0.619,0.375-1.481,0.074-1.925-0.669c-0.449-0.751-0.309-1.662,0.305-2.037C9.351,78.895,10.213,79.195,10.658,79.946z" fill="#E3E3E4"/>			<path clip-path="url(#SVGIDserver_4_)" d="M10.619,79.966c0.429,0.724,0.297,1.603-0.297,1.967     c-0.592,0.363-1.427,0.074-1.859-0.653c-0.425-0.724-0.298-1.604,0.301-1.967C9.354,78.949,10.186,79.238,10.619,79.966z" fill="#E4E4E5"/>			<path clip-path="url(#SVGIDserver_4_)" d="M10.576,79.989c0.418,0.696,0.291,1.548-0.282,1.9     c-0.576,0.344-1.376,0.062-1.793-0.634c-0.41-0.696-0.286-1.549,0.286-1.893C9.363,79.012,10.167,79.293,10.576,79.989z" fill="#E5E5E6"/>			<path clip-path="url(#SVGIDserver_4_)" d="M10.538,80.013c0.406,0.673,0.279,1.493-0.27,1.826     c-0.553,0.332-1.326,0.066-1.724-0.606c-0.402-0.673-0.279-1.485,0.274-1.826C9.367,79.074,10.14,79.34,10.538,80.013z" fill="#E6E6E7"/>			<path clip-path="url(#SVGIDserver_4_)" d="M10.503,80.04c0.387,0.642,0.267,1.427-0.267,1.756     c-0.529,0.32-1.271,0.059-1.654-0.583c-0.387-0.649-0.271-1.435,0.263-1.756C9.374,79.129,10.121,79.391,10.503,80.04z" fill="#E7E7E8"/>			<path clip-path="url(#SVGIDserver_4_)" d="M10.465,80.06c0.371,0.618,0.254,1.376-0.251,1.686     c-0.515,0.309-1.225,0.062-1.593-0.56C8.25,80.567,8.362,79.81,8.872,79.5C9.382,79.191,10.093,79.438,10.465,80.06z" fill="#E8E8E9"/>			<path clip-path="url(#SVGIDserver_4_)" d="M10.426,80.083c0.351,0.595,0.243,1.321-0.244,1.619     c-0.487,0.297-1.171,0.055-1.527-0.54c-0.352-0.595-0.244-1.313,0.244-1.611C9.39,79.254,10.074,79.488,10.426,80.083z" fill="#E9E9EA"/>			<path clip-path="url(#SVGIDserver_4_)" d="M10.387,80.106c0.336,0.567,0.236,1.259-0.236,1.545     c-0.464,0.285-1.117,0.059-1.458-0.513c-0.336-0.567-0.235-1.259,0.236-1.545C9.398,79.309,10.047,79.535,10.387,80.106z" fill="#EAEAEB"/>			<path clip-path="url(#SVGIDserver_4_)" d="M10.353,80.134c0.316,0.54,0.22,1.2-0.225,1.475     c-0.444,0.266-1.07,0.047-1.396-0.489c-0.325-0.548-0.224-1.208,0.225-1.475C9.402,79.371,10.028,79.59,10.353,80.134z" fill="#EBEBEC"/>			<path clip-path="url(#SVGIDserver_4_)" d="M10.31,80.157c0.31,0.513,0.213,1.146-0.212,1.399     c-0.425,0.263-1.016,0.056-1.326-0.469c-0.309-0.513-0.212-1.138,0.212-1.4C9.409,79.426,10,79.633,10.31,80.157z" fill="#ECECED"/>			<path clip-path="url(#SVGIDserver_4_)" d="M10.271,80.177c0.294,0.493,0.205,1.087-0.197,1.337     c-0.406,0.243-0.97,0.043-1.26-0.445c-0.293-0.493-0.205-1.087,0.201-1.337C9.417,79.488,9.981,79.688,10.271,80.177z" fill="#EDEDEE"/>			<path clip-path="url(#SVGIDserver_4_)" d="M10.232,80.2c0.278,0.466,0.194,1.032-0.189,1.263     c-0.383,0.239-0.916,0.051-1.194-0.418c-0.274-0.466-0.193-1.032,0.189-1.263C9.421,79.551,9.955,79.731,10.232,80.2z" fill="#EEEEEF"/>			<path clip-path="url(#SVGIDserver_4_)" d="M10.194,80.22c0.263,0.442,0.182,0.974-0.177,1.2     c-0.364,0.22-0.866,0.039-1.13-0.395c-0.258-0.442-0.181-0.974,0.182-1.2C9.429,79.605,9.935,79.786,10.194,80.22z" fill="#EFEFF0"/>			<path clip-path="url(#SVGIDserver_4_)" d="M10.155,80.251c0.248,0.411,0.17,0.911-0.166,1.118     c-0.34,0.207-0.816,0.043-1.063-0.375c-0.248-0.411-0.174-0.911,0.166-1.118C9.437,79.668,9.908,79.841,10.155,80.251z" fill="#F0F0F1"/>			<path clip-path="url(#SVGIDserver_4_)" d="M10.121,80.271c0.232,0.392,0.158,0.86-0.162,1.056     c-0.318,0.195-0.762,0.035-0.994-0.352c-0.232-0.392-0.163-0.86,0.158-1.056S9.889,79.884,10.121,80.271z" fill="#F1F1F2"/>			<path clip-path="url(#SVGIDserver_4_)" d="M10.082,80.294c0.212,0.363,0.146,0.798-0.151,0.981     c-0.294,0.184-0.711,0.039-0.928-0.324c-0.217-0.364-0.151-0.798,0.151-0.981C9.448,79.786,9.862,79.938,10.082,80.294z" fill="#F2F2F3"/>			<path clip-path="url(#SVGIDserver_4_)" d="M10.039,80.313c0.201,0.34,0.14,0.747-0.135,0.919     c-0.275,0.172-0.661,0.031-0.862-0.301c-0.201-0.341-0.136-0.747,0.135-0.919C9.456,79.849,9.842,79.981,10.039,80.313z" fill="#F3F3F4"/>			<path clip-path="url(#SVGIDserver_4_)" d="M10,80.345c0.186,0.309,0.131,0.685-0.124,0.837     c-0.259,0.16-0.611,0.035-0.796-0.281c-0.186-0.31-0.128-0.685,0.127-0.837C9.46,79.903,9.815,80.036,10,80.345z" fill="#F4F4F5"/>			<path clip-path="url(#SVGIDserver_4_)" d="M9.962,80.364c0.169,0.285,0.12,0.626-0.117,0.774     c-0.231,0.141-0.561,0.023-0.727-0.258c-0.166-0.286-0.116-0.626,0.112-0.774C9.467,79.966,9.795,80.083,9.962,80.364z" fill="#F5F5F6"/>			<path clip-path="url(#SVGIDserver_4_)" d="M9.927,80.388c0.155,0.258,0.104,0.571-0.105,0.7     c-0.216,0.137-0.51,0.031-0.665-0.23c-0.154-0.259-0.104-0.571,0.104-0.7C9.475,80.021,9.769,80.134,9.927,80.388z" fill="#F6F6F6"/>			<path clip-path="url(#SVGIDserver_4_)" d="M9.889,80.407c0.139,0.238,0.097,0.521-0.097,0.638     c-0.189,0.117-0.459,0.02-0.595-0.207C9.058,80.599,9.1,80.317,9.293,80.2C9.479,80.083,9.749,80.181,9.889,80.407z" fill="#F7F7F7"/>			<path clip-path="url(#SVGIDserver_4_)" d="M9.85,80.438c0.124,0.207,0.085,0.454-0.089,0.556     c-0.166,0.113-0.402,0.027-0.53-0.18c-0.119-0.216-0.081-0.462,0.085-0.563C9.491,80.146,9.726,80.231,9.85,80.438z" fill="#F8F8F8"/>			<path clip-path="url(#SVGIDserver_4_)" d="M9.811,80.458c0.108,0.184,0.074,0.403-0.073,0.493     c-0.151,0.09-0.36,0.016-0.464-0.164c-0.108-0.185-0.074-0.403,0.073-0.493C9.495,80.204,9.703,80.278,9.811,80.458z" fill="#F9F9F9"/>			<path clip-path="url(#SVGIDserver_4_)" d="M9.769,80.481c0.093,0.156,0.069,0.349-0.062,0.419     c-0.124,0.078-0.301,0.02-0.395-0.137c-0.093-0.157-0.066-0.349,0.062-0.419C9.502,80.267,9.68,80.333,9.769,80.481z" fill="#FAFAFA"/>			<path clip-path="url(#SVGIDserver_4_)" d="M9.733,80.505c0.078,0.133,0.054,0.286-0.05,0.353     c-0.112,0.066-0.259,0.012-0.333-0.117c-0.077-0.134-0.054-0.286,0.051-0.353C9.51,80.329,9.657,80.376,9.733,80.505z" fill="#FBFBFB"/>			<path clip-path="url(#SVGIDserver_4_)" d="M9.695,80.532c0.062,0.102,0.043,0.228-0.042,0.282     c-0.085,0.047-0.201,0.008-0.263-0.094c-0.066-0.11-0.042-0.235,0.039-0.282C9.514,80.384,9.637,80.431,9.695,80.532z" fill="#FCFCFC"/>			<path clip-path="url(#SVGIDserver_4_)" d="M9.657,80.552c0.046,0.082,0.031,0.177-0.035,0.212     c-0.062,0.035-0.15,0.008-0.197-0.07c-0.047-0.083-0.031-0.169,0.035-0.212C9.521,80.446,9.61,80.474,9.657,80.552z" fill="#FDFDFD"/>			<path clip-path="url(#SVGIDserver_4_)" d="M9.618,80.575c0.031,0.055,0.022,0.114-0.02,0.146     c-0.042,0.023-0.104,0.004-0.135-0.051c-0.027-0.048-0.02-0.114,0.023-0.138C9.525,80.501,9.587,80.528,9.618,80.575z" fill="#FEFEFE"/>			<path clip-path="url(#SVGIDserver_4_)" d="M9.583,80.599c0.011,0.031,0.007,0.059-0.016,0.071     c-0.019,0.012-0.05,0-0.065-0.024c-0.011-0.023-0.007-0.059,0.012-0.07C9.537,80.563,9.564,80.575,9.583,80.599z" fill="#FFFFFF"/>		</g>	</g>		<path d="M1.381,61.784c-0.022-1.429,0-0.961,0-2.935c0.651,1.635,17.672,13.745,24.943,10.427v-9.213   c-8.187,2.894-24.05-8.887-24.943-10.315c-0.022-1.422,0-0.953,0-2.935c0.651,1.642,17.672,13.752,24.943,10.435v-9.214   c-8.187,2.886-24.05-8.887-24.943-10.315c-0.022-1.422,0-0.961,0-2.935c0.651,1.643,17.672,13.752,24.943,10.435v-9.146   C20.743,39.341,0.18,28.057,0.001,22.947c0-0.01,0-0.038-0.001-0.066v63.524h0.023c0.46,5.161,20.76,16.25,26.301,13.012V72.092   C18.138,74.985,2.274,63.206,1.381,61.784z M9.246,85.664c-2.151-1.257-3.882-4.29-3.876-6.776c0.006-2.502,1.753-3.504,3.9-2.248   c2.141,1.253,3.874,4.287,3.866,6.779C13.129,85.915,11.387,86.917,9.246,85.664z" fill="url(#SVGIDserver_5_)"/></g></symbol></defs><g transform='translate(510.6,99.0) rotate(0 38.4 60.0)'><use xlink:href='#com.gliffy.newnetwork.home.Server' width='76.8' height='120.0'  fill="#003366"/><g  transform='translate(0.0,139.0)'><text x='38.4' style='text-anchor: middle' y='-2.0'><tspan xml:space='preserve' font-size='14' font-family='Arial' fill='#000000' font-weight='bold' >Victim</tspan><tspan xml:space='preserve' font-size='14' font-family='Arial' fill='#000000' font-weight='bold' >&#39;</tspan><tspan xml:space='preserve' font-size='14' font-family='Arial' fill='#000000' font-weight='bold' >s resource with</tspan></text><text x='38.4' style='text-anchor: middle' y='15.600000000000001'><tspan xml:space='preserve' font-size='14' font-family='Arial' fill='#000000' font-weight='bold' >unrestricted cross domain</tspan></text><text x='38.4' style='text-anchor: middle' y='33.2'><tspan xml:space='preserve' font-size='14' font-family='Arial' fill='#000000' font-weight='bold' >policy</tspan></text></g></g><defs>    <path d="M11.396,79.491c1.048,1.759,1.066,3.689,0.042,4.313c-1.023,0.628-2.704-0.294-3.753-2.053      c-1.044-1.758-1.065-3.689-0.042-4.312C8.669,76.816,10.347,77.733,11.396,79.491z" id="SVGIDserver_3_"/>    <clipPath id="SVGIDserver_4_">        <use overflow="visible" xlink:actuate="onLoad" xlink:href="#SVGIDserver_3_" xlink:show="embed" xlink:type="simple" xmlns:xlink="http://www.w3.org/1999/xlink"/>    </clipPath>    <linearGradient gradientUnits="userSpaceOnUse" id="SVGIDserver_1_" x1="10.5381" x2="50.7503" xlink:actuate="onLoad" xlink:show="other" xlink:type="simple" xmlns:xlink="http://www.w3.org/1999/xlink" y1="31.2178" y2="7.4423">		<stop offset="0" style="stop-color:#464646"/>		<stop offset="1" style="stop-color:#CCCCCC"/>		<a:midPointStop offset="0" style="stop-color:#464646"/>		<a:midPointStop offset="0.5" style="stop-color:#464646"/>		<a:midPointStop offset="1" style="stop-color:#CCCCCC"/>	</linearGradient><linearGradient gradientUnits="userSpaceOnUse" id="SVGIDserver_2_" x1="22.9014" x2="56.9328" xlink:actuate="onLoad" xlink:show="other" xlink:type="simple" xmlns:xlink="http://www.w3.org/1999/xlink" y1="69.9111" y2="49.79">		<stop offset="0" style="stop-color:#353535"/>		<stop offset="1" style="stop-color:#949494"/>		<a:midPointStop offset="0" style="stop-color:#353535"/>		<a:midPointStop offset="0.5" style="stop-color:#353535"/>		<a:midPointStop offset="1" style="stop-color:#949494"/>	</linearGradient><linearGradient gradientUnits="userSpaceOnUse" id="SVGIDserver_5_" x1="0" x2="26.3242" xlink:actuate="onLoad" xlink:show="other" xlink:type="simple" xmlns:xlink="http://www.w3.org/1999/xlink" y1="61.4395" y2="61.4395">		<stop offset="0" style="stop-color:#565656"/>		<stop offset="0.1023" style="stop-color:#696969"/>		<stop offset="0.2979" style="stop-color:#868686"/>		<stop offset="0.4908" style="stop-color:#9C9C9C"/>		<stop offset="0.6779" style="stop-color:#A9A9A9"/>		<stop offset="0.8528" style="stop-color:#ADADAD"/>		<stop offset="1" style="stop-color:#535353"/>		<a:midPointStop offset="0" style="stop-color:#565656"/>		<a:midPointStop offset="0.3067" style="stop-color:#565656"/>		<a:midPointStop offset="0.8528" style="stop-color:#ADADAD"/>		<a:midPointStop offset="0.5" style="stop-color:#ADADAD"/>		<a:midPointStop offset="1" style="stop-color:#535353"/>	</linearGradient><symbol id="com.gliffy.newnetwork.home.Server" viewBox="0 0 64 100" preserveAspectRatio="none"><g id="Layer_0">	<rect fill="none" height="99.918" width="64"/>	<path d="M26.324,69.89V36.073C20.743,39.341,0.18,28.057,0.001,22.947c0-0.01,0-0.038-0.001-0.066v63.524h0.023   c0.46,5.161,20.76,16.25,26.301,13.012V69.89z"/></g><g id="Layer_1">	<rect fill="none" height="99.918" width="64"/>		<path d="M64,14.176c0,0-33.512,19.476-37.676,21.897C20.899,39.247,0,29.642,0,22.881   C4.341,20.346,39.186-0.001,39.186-0.001L64,14.176z" fill="url(#SVGIDserver_1_)"/>		<polygon fill="url(#SVGIDserver_2_)" points="26.227,99.481 64,77.425 64,14.176 26.324,36.073  "/>	<g>		<g>			<rect clip-path="url(#SVGIDserver_4_)" fill="#C4C6C8" height="7.613" width="5.844" x="6.619" y="76.817"/>			<path clip-path="url(#SVGIDserver_4_)" d="M11.81,79.238c0.908,1.525,0.63,3.379-0.623,4.145     c-1.252,0.767-3.003,0.146-3.912-1.376c-0.908-1.525-0.63-3.379,0.622-4.145C9.15,77.104,10.901,77.717,11.81,79.238z" fill="#C4C6C8"/>			<path clip-path="url(#SVGIDserver_4_)" d="M11.771,79.266c0.893,1.498,0.618,3.32-0.615,4.066     c-1.229,0.755-2.954,0.148-3.842-1.345c-0.897-1.506-0.619-3.32,0.611-4.074C9.158,77.158,10.878,77.764,11.771,79.266z" fill="#C5C7C9"/>			<path clip-path="url(#SVGIDserver_4_)" d="M11.732,79.285c0.877,1.475,0.611,3.262-0.6,4.004     C9.924,84.024,8.23,83.43,7.349,81.96c-0.877-1.475-0.603-3.262,0.607-4.004C9.166,77.221,10.855,77.814,11.732,79.285z" fill="#C6C8CA"/>			<path clip-path="url(#SVGIDserver_4_)" d="M11.693,79.309c0.862,1.447,0.6,3.206-0.591,3.93     c-1.19,0.731-2.853,0.145-3.715-1.302c-0.862-1.447-0.595-3.207,0.591-3.93C9.169,77.275,10.836,77.862,11.693,79.309z" fill="#C7C9CB"/>			<path clip-path="url(#SVGIDserver_4_)" d="M11.659,79.332c0.843,1.424,0.584,3.151-0.587,3.863     c-1.167,0.712-2.798,0.133-3.645-1.282C6.58,80.489,6.842,78.769,8.01,78.05C9.177,77.338,10.809,77.917,11.659,79.332z" fill="#C8CACC"/>			<path clip-path="url(#SVGIDserver_4_)" d="M11.62,79.359c0.827,1.393,0.572,3.089-0.572,3.785     c-1.148,0.708-2.753,0.141-3.58-1.251c-0.831-1.4-0.58-3.097,0.569-3.793C9.181,77.4,10.79,77.96,11.62,79.359z" fill="#C9CBCD"/>			<path clip-path="url(#SVGIDserver_4_)" d="M11.578,79.383c0.816,1.369,0.568,3.034-0.56,3.719     c-1.125,0.688-2.699,0.133-3.511-1.239c-0.819-1.369-0.568-3.034,0.557-3.719C9.189,77.455,10.762,78.011,11.578,79.383z" fill="#CACCCE"/>			<path clip-path="url(#SVGIDserver_4_)" d="M11.539,79.402c0.804,1.346,0.557,2.983-0.549,3.648     c-1.102,0.677-2.648,0.137-3.448-1.208c-0.8-1.346-0.553-2.976,0.553-3.648C9.196,77.518,10.743,78.058,11.539,79.402z" fill="#CBCDCF"/>			<path clip-path="url(#SVGIDserver_4_)" d="M11.5,79.426c0.789,1.322,0.549,2.921-0.537,3.582     c-1.083,0.665-2.598,0.125-3.382-1.188c-0.785-1.322-0.542-2.921,0.537-3.582C9.205,77.572,10.716,78.112,11.5,79.426z" fill="#CCCED0"/>			<path clip-path="url(#SVGIDserver_4_)" d="M11.466,79.453c0.765,1.291,0.533,2.862-0.53,3.512     C9.873,83.61,8.388,83.09,7.62,81.8c-0.77-1.299-0.533-2.87,0.529-3.512C9.208,77.635,10.696,78.155,11.466,79.453z" fill="#CDCFD1"/>			<path clip-path="url(#SVGIDserver_4_)" d="M11.427,79.477c0.75,1.264,0.521,2.808-0.522,3.438     c-1.04,0.642-2.494,0.121-3.247-1.146c-0.754-1.264-0.522-2.8,0.514-3.438C9.216,77.697,10.669,78.21,11.427,79.477z" fill="#CED0D1"/>			<path clip-path="url(#SVGIDserver_4_)" d="M11.388,79.496c0.734,1.244,0.511,2.749-0.51,3.375     c-1.021,0.617-2.443,0.121-3.186-1.122C6.955,80.505,7.187,79,8.203,78.382C9.224,77.756,10.65,78.253,11.388,79.496z" fill="#CFD1D2"/>			<path clip-path="url(#SVGIDserver_4_)" d="M11.35,79.52c0.723,1.217,0.502,2.694-0.499,3.301     c-0.997,0.605-2.393,0.117-3.116-1.095c-0.727-1.217-0.503-2.694,0.499-3.301C9.227,77.818,10.623,78.308,11.35,79.52z" fill="#D0D2D3"/>			<path clip-path="url(#SVGIDserver_4_)" d="M11.308,79.547c0.711,1.189,0.495,2.636-0.483,3.23     c-0.979,0.594-2.343,0.113-3.05-1.071c-0.711-1.197-0.491-2.636,0.483-3.23C9.235,77.874,10.604,78.354,11.308,79.547z" fill="#D1D3D4"/>			<path clip-path="url(#SVGIDserver_4_)" d="M11.273,79.57c0.691,1.162,0.475,2.573-0.476,3.156     c-0.956,0.582-2.292,0.113-2.985-1.052c-0.691-1.162-0.479-2.573,0.476-3.156C9.243,77.937,10.576,78.405,11.273,79.57z" fill="#D2D4D5"/>			<path clip-path="url(#SVGIDserver_4_)" d="M11.233,79.59c0.677,1.143,0.472,2.522-0.467,3.094     c-0.932,0.562-2.238,0.109-2.915-1.028c-0.676-1.143-0.472-2.522,0.464-3.086C9.25,77.999,10.557,78.452,11.233,79.59z" fill="#D3D5D6"/>			<path clip-path="url(#SVGIDserver_4_)" d="M11.195,79.613c0.661,1.115,0.457,2.46-0.452,3.02     c-0.912,0.559-2.191,0.109-2.857-1.001c-0.657-1.107-0.456-2.46,0.457-3.02C9.258,78.054,10.53,78.503,11.195,79.613z" fill="#D4D6D7"/>			<path clip-path="url(#SVGIDserver_4_)" d="M11.156,79.633c0.65,1.092,0.444,2.409-0.444,2.957     c-0.89,0.539-2.138,0.105-2.787-0.978c-0.646-1.084-0.445-2.409,0.444-2.957C9.262,78.116,10.511,78.55,11.156,79.633z" fill="#D5D7D8"/>			<path clip-path="url(#SVGIDserver_4_)" d="M11.118,79.664c0.63,1.061,0.437,2.347-0.437,2.874     c-0.87,0.536-2.084,0.103-2.718-0.958c-0.63-1.052-0.437-2.346,0.437-2.874C9.27,78.179,10.484,78.604,11.118,79.664z" fill="#D6D8D9"/>			<path clip-path="url(#SVGIDserver_4_)" d="M11.083,79.684c0.61,1.041,0.421,2.288-0.425,2.812     c-0.851,0.517-2.037,0.103-2.652-0.935c-0.619-1.032-0.429-2.287,0.421-2.812C9.274,78.233,10.465,78.647,11.083,79.684z" fill="#D7D9DA"/>			<path clip-path="url(#SVGIDserver_4_)" d="M11.041,79.707c0.599,1.014,0.414,2.233-0.414,2.737     c-0.827,0.505-1.983,0.098-2.583-0.907c-0.603-1.005-0.417-2.232,0.41-2.736C9.281,78.296,10.438,78.702,11.041,79.707z" fill="#D8DADB"/>			<path clip-path="url(#SVGIDserver_4_)" d="M11.002,79.731c0.583,0.985,0.406,2.178-0.398,2.67     c-0.808,0.493-1.937,0.098-2.524-0.888c-0.584-0.978-0.402-2.178,0.406-2.67C9.293,78.351,10.418,78.745,11.002,79.731z" fill="#D9DBDC"/>			<path clip-path="url(#SVGIDserver_4_)" d="M10.963,79.759c0.572,0.958,0.394,2.111-0.391,2.592     c-0.785,0.481-1.886,0.094-2.455-0.864c-0.564-0.95-0.395-2.111,0.39-2.592C9.297,78.413,10.392,78.801,10.963,79.759z" fill="#DADCDD"/>			<path clip-path="url(#SVGIDserver_4_)" d="M10.925,79.778c0.556,0.927,0.383,2.064-0.379,2.529     c-0.765,0.47-1.832,0.09-2.389-0.841c-0.553-0.927-0.383-2.064,0.383-2.529C9.305,78.476,10.372,78.848,10.925,79.778z" fill="#DBDDDE"/>			<path clip-path="url(#SVGIDserver_4_)" d="M10.89,79.802c0.538,0.899,0.367,2.01-0.371,2.455     c-0.743,0.458-1.782,0.09-2.324-0.813c-0.537-0.899-0.375-2.01,0.367-2.455C9.309,78.53,10.353,78.898,10.89,79.802z" fill="#DCDEDF"/>			<path clip-path="url(#SVGIDserver_4_)" d="M10.847,79.825c0.526,0.876,0.363,1.947-0.359,2.389     C9.765,82.652,8.756,82.3,8.234,81.42c-0.521-0.876-0.363-1.947,0.36-2.389C9.316,78.593,10.325,78.945,10.847,79.825z" fill="#DDDFE0"/>			<path clip-path="url(#SVGIDserver_4_)" d="M10.809,79.853c0.51,0.849,0.352,1.889-0.348,2.311     c-0.7,0.431-1.682,0.086-2.188-0.763c-0.506-0.856-0.353-1.896,0.352-2.318C9.32,78.651,10.298,78.996,10.809,79.853z" fill="#DEE0E1"/>			<path clip-path="url(#SVGIDserver_4_)" d="M10.77,79.872c0.495,0.825,0.34,1.838-0.336,2.248     c-0.681,0.41-1.631,0.082-2.123-0.747c-0.491-0.825-0.34-1.838,0.337-2.248C9.328,78.714,10.279,79.043,10.77,79.872z" fill="#DFE1E2"/>			<path clip-path="url(#SVGIDserver_4_)" d="M10.731,79.896c0.479,0.798,0.333,1.775-0.324,2.174     c-0.661,0.406-1.577,0.078-2.057-0.72c-0.479-0.798-0.332-1.775,0.329-2.174C9.332,78.777,10.259,79.098,10.731,79.896z" fill="#E0E2E3"/>			<path clip-path="url(#SVGIDserver_4_)" d="M10.696,79.919c0.46,0.774,0.317,1.721-0.32,2.107     c-0.634,0.387-1.527,0.078-1.988-0.7c-0.463-0.774-0.32-1.721,0.313-2.107C9.343,78.832,10.232,79.141,10.696,79.919z" fill="#E2E3E4"/>			<path clip-path="url(#SVGIDserver_4_)" d="M10.658,79.946c0.444,0.743,0.306,1.662-0.305,2.029     c-0.619,0.375-1.481,0.074-1.925-0.669c-0.449-0.751-0.309-1.662,0.305-2.037C9.351,78.895,10.213,79.195,10.658,79.946z" fill="#E3E3E4"/>			<path clip-path="url(#SVGIDserver_4_)" d="M10.619,79.966c0.429,0.724,0.297,1.603-0.297,1.967     c-0.592,0.363-1.427,0.074-1.859-0.653c-0.425-0.724-0.298-1.604,0.301-1.967C9.354,78.949,10.186,79.238,10.619,79.966z" fill="#E4E4E5"/>			<path clip-path="url(#SVGIDserver_4_)" d="M10.576,79.989c0.418,0.696,0.291,1.548-0.282,1.9     c-0.576,0.344-1.376,0.062-1.793-0.634c-0.41-0.696-0.286-1.549,0.286-1.893C9.363,79.012,10.167,79.293,10.576,79.989z" fill="#E5E5E6"/>			<path clip-path="url(#SVGIDserver_4_)" d="M10.538,80.013c0.406,0.673,0.279,1.493-0.27,1.826     c-0.553,0.332-1.326,0.066-1.724-0.606c-0.402-0.673-0.279-1.485,0.274-1.826C9.367,79.074,10.14,79.34,10.538,80.013z" fill="#E6E6E7"/>			<path clip-path="url(#SVGIDserver_4_)" d="M10.503,80.04c0.387,0.642,0.267,1.427-0.267,1.756     c-0.529,0.32-1.271,0.059-1.654-0.583c-0.387-0.649-0.271-1.435,0.263-1.756C9.374,79.129,10.121,79.391,10.503,80.04z" fill="#E7E7E8"/>			<path clip-path="url(#SVGIDserver_4_)" d="M10.465,80.06c0.371,0.618,0.254,1.376-0.251,1.686     c-0.515,0.309-1.225,0.062-1.593-0.56C8.25,80.567,8.362,79.81,8.872,79.5C9.382,79.191,10.093,79.438,10.465,80.06z" fill="#E8E8E9"/>			<path clip-path="url(#SVGIDserver_4_)" d="M10.426,80.083c0.351,0.595,0.243,1.321-0.244,1.619     c-0.487,0.297-1.171,0.055-1.527-0.54c-0.352-0.595-0.244-1.313,0.244-1.611C9.39,79.254,10.074,79.488,10.426,80.083z" fill="#E9E9EA"/>			<path clip-path="url(#SVGIDserver_4_)" d="M10.387,80.106c0.336,0.567,0.236,1.259-0.236,1.545     c-0.464,0.285-1.117,0.059-1.458-0.513c-0.336-0.567-0.235-1.259,0.236-1.545C9.398,79.309,10.047,79.535,10.387,80.106z" fill="#EAEAEB"/>			<path clip-path="url(#SVGIDserver_4_)" d="M10.353,80.134c0.316,0.54,0.22,1.2-0.225,1.475     c-0.444,0.266-1.07,0.047-1.396-0.489c-0.325-0.548-0.224-1.208,0.225-1.475C9.402,79.371,10.028,79.59,10.353,80.134z" fill="#EBEBEC"/>			<path clip-path="url(#SVGIDserver_4_)" d="M10.31,80.157c0.31,0.513,0.213,1.146-0.212,1.399     c-0.425,0.263-1.016,0.056-1.326-0.469c-0.309-0.513-0.212-1.138,0.212-1.4C9.409,79.426,10,79.633,10.31,80.157z" fill="#ECECED"/>			<path clip-path="url(#SVGIDserver_4_)" d="M10.271,80.177c0.294,0.493,0.205,1.087-0.197,1.337     c-0.406,0.243-0.97,0.043-1.26-0.445c-0.293-0.493-0.205-1.087,0.201-1.337C9.417,79.488,9.981,79.688,10.271,80.177z" fill="#EDEDEE"/>			<path clip-path="url(#SVGIDserver_4_)" d="M10.232,80.2c0.278,0.466,0.194,1.032-0.189,1.263     c-0.383,0.239-0.916,0.051-1.194-0.418c-0.274-0.466-0.193-1.032,0.189-1.263C9.421,79.551,9.955,79.731,10.232,80.2z" fill="#EEEEEF"/>			<path clip-path="url(#SVGIDserver_4_)" d="M10.194,80.22c0.263,0.442,0.182,0.974-0.177,1.2     c-0.364,0.22-0.866,0.039-1.13-0.395c-0.258-0.442-0.181-0.974,0.182-1.2C9.429,79.605,9.935,79.786,10.194,80.22z" fill="#EFEFF0"/>			<path clip-path="url(#SVGIDserver_4_)" d="M10.155,80.251c0.248,0.411,0.17,0.911-0.166,1.118     c-0.34,0.207-0.816,0.043-1.063-0.375c-0.248-0.411-0.174-0.911,0.166-1.118C9.437,79.668,9.908,79.841,10.155,80.251z" fill="#F0F0F1"/>			<path clip-path="url(#SVGIDserver_4_)" d="M10.121,80.271c0.232,0.392,0.158,0.86-0.162,1.056     c-0.318,0.195-0.762,0.035-0.994-0.352c-0.232-0.392-0.163-0.86,0.158-1.056S9.889,79.884,10.121,80.271z" fill="#F1F1F2"/>			<path clip-path="url(#SVGIDserver_4_)" d="M10.082,80.294c0.212,0.363,0.146,0.798-0.151,0.981     c-0.294,0.184-0.711,0.039-0.928-0.324c-0.217-0.364-0.151-0.798,0.151-0.981C9.448,79.786,9.862,79.938,10.082,80.294z" fill="#F2F2F3"/>			<path clip-path="url(#SVGIDserver_4_)" d="M10.039,80.313c0.201,0.34,0.14,0.747-0.135,0.919     c-0.275,0.172-0.661,0.031-0.862-0.301c-0.201-0.341-0.136-0.747,0.135-0.919C9.456,79.849,9.842,79.981,10.039,80.313z" fill="#F3F3F4"/>			<path clip-path="url(#SVGIDserver_4_)" d="M10,80.345c0.186,0.309,0.131,0.685-0.124,0.837     c-0.259,0.16-0.611,0.035-0.796-0.281c-0.186-0.31-0.128-0.685,0.127-0.837C9.46,79.903,9.815,80.036,10,80.345z" fill="#F4F4F5"/>			<path clip-path="url(#SVGIDserver_4_)" d="M9.962,80.364c0.169,0.285,0.12,0.626-0.117,0.774     c-0.231,0.141-0.561,0.023-0.727-0.258c-0.166-0.286-0.116-0.626,0.112-0.774C9.467,79.966,9.795,80.083,9.962,80.364z" fill="#F5F5F6"/>			<path clip-path="url(#SVGIDserver_4_)" d="M9.927,80.388c0.155,0.258,0.104,0.571-0.105,0.7     c-0.216,0.137-0.51,0.031-0.665-0.23c-0.154-0.259-0.104-0.571,0.104-0.7C9.475,80.021,9.769,80.134,9.927,80.388z" fill="#F6F6F6"/>			<path clip-path="url(#SVGIDserver_4_)" d="M9.889,80.407c0.139,0.238,0.097,0.521-0.097,0.638     c-0.189,0.117-0.459,0.02-0.595-0.207C9.058,80.599,9.1,80.317,9.293,80.2C9.479,80.083,9.749,80.181,9.889,80.407z" fill="#F7F7F7"/>			<path clip-path="url(#SVGIDserver_4_)" d="M9.85,80.438c0.124,0.207,0.085,0.454-0.089,0.556     c-0.166,0.113-0.402,0.027-0.53-0.18c-0.119-0.216-0.081-0.462,0.085-0.563C9.491,80.146,9.726,80.231,9.85,80.438z" fill="#F8F8F8"/>			<path clip-path="url(#SVGIDserver_4_)" d="M9.811,80.458c0.108,0.184,0.074,0.403-0.073,0.493     c-0.151,0.09-0.36,0.016-0.464-0.164c-0.108-0.185-0.074-0.403,0.073-0.493C9.495,80.204,9.703,80.278,9.811,80.458z" fill="#F9F9F9"/>			<path clip-path="url(#SVGIDserver_4_)" d="M9.769,80.481c0.093,0.156,0.069,0.349-0.062,0.419     c-0.124,0.078-0.301,0.02-0.395-0.137c-0.093-0.157-0.066-0.349,0.062-0.419C9.502,80.267,9.68,80.333,9.769,80.481z" fill="#FAFAFA"/>			<path clip-path="url(#SVGIDserver_4_)" d="M9.733,80.505c0.078,0.133,0.054,0.286-0.05,0.353     c-0.112,0.066-0.259,0.012-0.333-0.117c-0.077-0.134-0.054-0.286,0.051-0.353C9.51,80.329,9.657,80.376,9.733,80.505z" fill="#FBFBFB"/>			<path clip-path="url(#SVGIDserver_4_)" d="M9.695,80.532c0.062,0.102,0.043,0.228-0.042,0.282     c-0.085,0.047-0.201,0.008-0.263-0.094c-0.066-0.11-0.042-0.235,0.039-0.282C9.514,80.384,9.637,80.431,9.695,80.532z" fill="#FCFCFC"/>			<path clip-path="url(#SVGIDserver_4_)" d="M9.657,80.552c0.046,0.082,0.031,0.177-0.035,0.212     c-0.062,0.035-0.15,0.008-0.197-0.07c-0.047-0.083-0.031-0.169,0.035-0.212C9.521,80.446,9.61,80.474,9.657,80.552z" fill="#FDFDFD"/>			<path clip-path="url(#SVGIDserver_4_)" d="M9.618,80.575c0.031,0.055,0.022,0.114-0.02,0.146     c-0.042,0.023-0.104,0.004-0.135-0.051c-0.027-0.048-0.02-0.114,0.023-0.138C9.525,80.501,9.587,80.528,9.618,80.575z" fill="#FEFEFE"/>			<path clip-path="url(#SVGIDserver_4_)" d="M9.583,80.599c0.011,0.031,0.007,0.059-0.016,0.071     c-0.019,0.012-0.05,0-0.065-0.024c-0.011-0.023-0.007-0.059,0.012-0.07C9.537,80.563,9.564,80.575,9.583,80.599z" fill="#FFFFFF"/>		</g>	</g>		<path d="M1.381,61.784c-0.022-1.429,0-0.961,0-2.935c0.651,1.635,17.672,13.745,24.943,10.427v-9.213   c-8.187,2.894-24.05-8.887-24.943-10.315c-0.022-1.422,0-0.953,0-2.935c0.651,1.642,17.672,13.752,24.943,10.435v-9.214   c-8.187,2.886-24.05-8.887-24.943-10.315c-0.022-1.422,0-0.961,0-2.935c0.651,1.643,17.672,13.752,24.943,10.435v-9.146   C20.743,39.341,0.18,28.057,0.001,22.947c0-0.01,0-0.038-0.001-0.066v63.524h0.023c0.46,5.161,20.76,16.25,26.301,13.012V72.092   C18.138,74.985,2.274,63.206,1.381,61.784z M9.246,85.664c-2.151-1.257-3.882-4.29-3.876-6.776c0.006-2.502,1.753-3.504,3.9-2.248   c2.141,1.253,3.874,4.287,3.866,6.779C13.129,85.915,11.387,86.917,9.246,85.664z" fill="url(#SVGIDserver_5_)"/></g></symbol></defs><g transform='translate(320.5,308.84375) rotate(0 38.5 60.15625)'><use xlink:href='#com.gliffy.newnetwork.home.Server' width='77.0' height='120.3125'  fill="#003366"/><g  transform='translate(0.0,139.3125)'><text x='38.5' style='text-anchor: middle' y='-2.0'><tspan xml:space='preserve' font-size='14' font-family='Arial' fill='#FF0000' font-weight='bold' >Attacker</tspan><tspan xml:space='preserve' font-size='14' font-family='Arial' fill='#FF0000' font-weight='bold' >&#39;</tspan><tspan xml:space='preserve' font-size='14' font-family='Arial' fill='#FF0000' font-weight='bold' >s server</tspan></text></g></g><defs><symbol id="com.gliffy.ui.formscomponents.Window_formscomponents/window_back_" viewBox="0 0 200 200" preserveAspectRatio="none"><path d="M200,197.749c0,1.246-1.003,2.252-2.241,2.252H2.249C1.006,200,0,198.995,0,197.749V2.256	C0,1.009,1.006,0,2.249,0h195.51C198.997,0,200,1.009,200,2.256V197.749z"/></symbol><symbol id="com.gliffy.ui.formscomponents.Window_formscomponents/window_top_left_" viewBox="0 0 6 31" preserveAspectRatio="none"><path style="fill:none;stroke:#8C8C8C;stroke-width:2;" d="M5.5,28.996l-4,0.008V2.996c0-1.104,0.896-2,2-2h2"/></symbol><symbol id="com.gliffy.ui.formscomponents.Window_formscomponents/window_top_mid_" viewBox="0 0 1 30" preserveAspectRatio="none"><line style="fill:none;stroke:#8C8C8C;stroke-width:2;" x1="0" y1="1" x2="1" y2="1"/><line style="fill:none;stroke:#8C8C8C;stroke-width:2;" x1="0" y1="29" x2="1" y2="29"/></symbol><symbol id="com.gliffy.ui.formscomponents.Window_formscomponents/window_top_right_" viewBox="0 0 76 30" preserveAspectRatio="none"><path style="fill:none;stroke:#8C8C8C;stroke-width:2;" d="M0,1h73c1.104,0,2,0.896,2,2l-0.016,25.984L0,29"/><path style="fill:none;stroke:#8C8C8C;stroke-width:2;" d="M71,23c0,1.104-0.896,2-2,2H53c-1.104,0-2-0.896-2-2V7	c0-1.104,0.896-2,2-2h16c1.104,0,2,0.896,2,2V23z"/><path style="fill:none;stroke:#8C8C8C;stroke-width:2;" d="M47,23c0,1.104-0.896,2-2,2H29c-1.104,0-2-0.896-2-2V7	c0-1.104,0.896-2,2-2h16c1.104,0,2,0.896,2,2V23z"/><path style="fill:none;stroke:#8C8C8C;stroke-width:2;" d="M23,23c0,1.104-0.896,2-2,2H5c-1.104,0-2-0.896-2-2V7	c0-1.104,0.896-2,2-2h16c1.104,0,2,0.896,2,2V23z"/><line style="fill:none;stroke:#8C8C8C;stroke-width:2;" x1="51.667" y1="24.5" x2="70" y2="5.917"/><line style="fill:none;stroke:#8C8C8C;stroke-width:2;" x1="51.417" y1="5.5" x2="70.25" y2="24.417"/><line style="fill:none;stroke:#8C8C8C;stroke-width:2;" x1="6.167" y1="20.75" x2="18.5" y2="20.75"/><rect x="32.167" y="9.917" style="fill:none;stroke:#8C8C8C;stroke-width:2;" width="10" height="10"/></symbol><symbol id="com.gliffy.ui.formscomponents.Window_formscomponents/window_mid_left_" viewBox="0 0 2 1" preserveAspectRatio="none"><line style="fill:none;stroke:#808183;stroke-width:2;" stroke-linecap="square" x1="1" y1="1" x2="1" y2="0"/></symbol><symbol id="com.gliffy.ui.formscomponents.Window_formscomponents/window_mid_right_" viewBox="0 0 2 1" preserveAspectRatio="none"><line style="fill:none;stroke:#808183;stroke-width:2;" stroke-linecap="square" x1="1" y1="1" x2="1" y2="0"/></symbol><symbol id="com.gliffy.ui.formscomponents.Window_formscomponents/window_bottom_left_" viewBox="0 0 4 4" preserveAspectRatio="none"><path style="fill:none;stroke:#808183;stroke-width:2;" stroke-linecap="square" d="M4,3C2.343,3,1,1.657,1,0"/></symbol><symbol id="com.gliffy.ui.formscomponents.Window_formscomponents/window_bottom_mid_" viewBox="0 0 1 2" preserveAspectRatio="none"><line style="fill:none;stroke:#808183;stroke-width:2;" stroke-linecap="square" x1="0" y1="1" x2="1" y2="1"/></symbol><symbol id="com.gliffy.ui.formscomponents.Window_formscomponents/window_bottom_right_" viewBox="0 0 4 4" preserveAspectRatio="none"><path style="fill:none;stroke:#808183;stroke-width:2;" stroke-linecap="square" d="M0,3c1.657,0,3-1.343,3-3"/></symbol></defs><g transform='translate(78.5,304.5) rotate(0 72.5 62.5)'><use xlink:href='#com.gliffy.ui.formscomponents.Window_formscomponents/window_back_' x='0.0' y='0.0' width='145.0' height='125.0' fill='#FFFFFF'/><use xlink:href='#com.gliffy.ui.formscomponents.Window_formscomponents/window_top_left_' x='0.0' y='0.0' width='6.0' height='30.0' fill='#FFFFFF'/><use xlink:href='#com.gliffy.ui.formscomponents.Window_formscomponents/window_top_mid_' x='3.0' y='0.0' width='68.0' height='30.0' fill='#FFFFFF'/><use xlink:href='#com.gliffy.ui.formscomponents.Window_formscomponents/window_top_right_' x='69.0' y='0.0' width='76.0' height='30.0' fill='#FFFFFF'/><use xlink:href='#com.gliffy.ui.formscomponents.Window_formscomponents/window_mid_left_' x='0.0' y='29.0' width='2.0' height='92.0' fill='#FFFFFF'/><use xlink:href='#com.gliffy.ui.formscomponents.Window_formscomponents/window_mid_right_' x='143.0' y='30.0' width='2.0' height='91.0' fill='#FFFFFF'/><use xlink:href='#com.gliffy.ui.formscomponents.Window_formscomponents/window_bottom_left_' x='0.0' y='121.0' width='4.0' height='4.0' fill='#FFFFFF'/><use xlink:href='#com.gliffy.ui.formscomponents.Window_formscomponents/window_bottom_mid_' x='4.0' y='123.0' width='137.0' height='2.0' fill='#FFFFFF'/><use xlink:href='#com.gliffy.ui.formscomponents.Window_formscomponents/window_bottom_right_' x='141.0' y='121.0' width='4.0' height='4.0' fill='#FFFFFF'/><g  transform='translate(5.0,22.0)'><text x='2' style='text-anchor: start' y='-2.0'><tspan xml:space='preserve' font-size='14' font-family='Arial' fill='#595959' font-weight='bold' >Attacker</tspan></text></g></g><g transform='translate(223.5,367.0)'><line x1='0.0' y1='2.0' x2='48.5' y2='2.0' stroke-dasharray='23, 0' stroke='#333333' stroke-width='2' /><line x1='48.5' y1='2.0' x2='48.5' y2='2.0' stroke-dasharray='23, 0' stroke='#333333' stroke-width='2' /><line x1='48.5' y1='2.0' x2='97.0' y2='2.0' stroke-dasharray='23, 0' stroke='#333333' stroke-width='2' /><g transform='translate(97.0,2.0) rotate(180.0)'><line x1='0' y1='0' x2='7.0' y2='-5' stroke='#333333' stroke-width='2' /><line x1='0' y1='0' x2='7.0' y2='5' stroke='#333333' stroke-width='2' /></g><g transform='translate(46.5,2.0)'><rect fill='#ffffff' x='-9.0' y='-10.0' width='18.0' height='16'/><text x='0.0' style='text-anchor: middle' y='2.0'><tspan font-size='14px' font-family='Arial' fill='#000000' font-weight='bold' >4.</tspan></text></g></g><g transform='translate(431.5,158.0)'><line x1='0.0' y1='0.0' x2='39.55000000000001' y2='0.0' stroke-dasharray='23, 0' stroke='#333333' stroke-width='2' /><line x1='39.55000000000001' y1='0.0' x2='39.55000000000001' y2='0.0' stroke-dasharray='23, 0' stroke='#333333' stroke-width='2' /><line x1='39.55000000000001' y1='0.0' x2='79.10000000000002' y2='0.0' stroke-dasharray='23, 0' stroke='#333333' stroke-width='2' /><g transform='translate(79.10000000000002,0.0) rotate(180.0)'><line x1='0' y1='0' x2='7.0' y2='-5' stroke='#333333' stroke-width='2' /><line x1='0' y1='0' x2='7.0' y2='5' stroke='#333333' stroke-width='2' /></g><g transform='translate(39.55000000000001,0.0)'><rect fill='#ffffff' x='-9.0' y='-10.0' width='18.0' height='16'/><text x='0.0' style='text-anchor: middle' y='2.0'><tspan font-size='14px' font-family='Arial' fill='#000000' font-weight='bold' >1.</tspan></text></g></g><g transform='translate(360.0,220.5)'><line x1='0.0' y1='0.0' x2='0.0' y2='44.171875' stroke-dasharray='23, 0' stroke='#333333' stroke-width='2' /><line x1='0.0' y1='44.171875' x2='0.0' y2='44.171875' stroke-dasharray='23, 0' stroke='#333333' stroke-width='2' /><line x1='0.0' y1='44.171875' x2='0.0' y2='88.34375' stroke-dasharray='23, 0' stroke='#333333' stroke-width='2' /><g transform='translate(0.0,88.34375) rotate(270.0)'><line x1='0' y1='0' x2='7.0' y2='-5' stroke='#333333' stroke-width='2' /><line x1='0' y1='0' x2='7.0' y2='5' stroke='#333333' stroke-width='2' /></g><g transform='translate(0.0,44.171875)'><rect fill='#ffffff' x='-9.0' y='-10.0' width='18.0' height='16'/><text x='0.0' style='text-anchor: middle' y='2.0'><tspan font-size='14px' font-family='Arial' fill='#000000' font-weight='bold' >3.</tspan></text></g></g><g transform='translate(223.5,392.0)'><line x1='0.0' y1='0.0' x2='162.5' y2='0.0' stroke-dasharray='15, 9' stroke='#ff0000' stroke-width='2' /><line x1='162.5' y1='0.0' x2='162.5' y2='-208.0' stroke-dasharray='15, 9' stroke='#ff0000' stroke-width='2' /><line x1='162.5' y1='-208.0' x2='288.5' y2='-208.0' stroke-dasharray='15, 9' stroke='#ff0000' stroke-width='2' /><g transform='translate(0.0,0.0) rotate(0.0)'><line x1='0' y1='0' x2='7.0' y2='-5' stroke='#ff0000' stroke-width='2' /><line x1='0' y1='0' x2='7.0' y2='5' stroke='#ff0000' stroke-width='2' /></g><g transform='translate(288.5,-208.0) rotate(180.0)'><line x1='0' y1='0' x2='7.0' y2='-5' stroke='#ff0000' stroke-width='2' /><line x1='0' y1='0' x2='7.0' y2='5' stroke='#ff0000' stroke-width='2' /></g><g transform='translate(162.5,-85.75)'><rect fill='#ffffff' x='-9.0' y='-10.0' width='18.0' height='16'/><text x='0.0' style='text-anchor: middle' y='2.0'><tspan font-size='14px' font-family='Arial' fill='#FF0000' font-weight='bold' >5.</tspan></text></g></g><g transform='translate(330.0,221.0)'><line x1='0.0' y1='0.0' x2='0.0' y2='43.0' stroke-dasharray='23, 0' stroke='#000000' stroke-width='2' /><line x1='0.0' y1='43.0' x2='0.0' y2='43.0' stroke-dasharray='23, 0' stroke='#000000' stroke-width='2' /><line x1='0.0' y1='43.0' x2='0.0' y2='86.0' stroke-dasharray='23, 0' stroke='#000000' stroke-width='2' /><g transform='translate(0.0,86.0) rotate(270.0)'><line x1='0' y1='0' x2='7.0' y2='-5' stroke='#000000' stroke-width='2' /><line x1='0' y1='0' x2='7.0' y2='5' stroke='#000000' stroke-width='2' /></g><g transform='translate(0.0,43.0)'><rect fill='#ffffff' x='-9.0' y='-10.0' width='18.0' height='16'/><text x='0.0' style='text-anchor: middle' y='2.0'><tspan font-size='14px' font-family='Arial' fill='#000000' font-weight='bold' >2.</tspan></text></g></g></svg>